<svg id="logo" xmlns="http://www.w3.org/2000/svg" width="482.344" height="139.906" viewBox="0 0 482.344 139.906">
  <defs>
    <style>
      .cls-1 {
        fill: #30b666;
      }

      .cls-1, .cls-2 {
        fill-rule: evenodd;
      }

      .cls-2 {
        fill: #fff;
      }
    </style>
  </defs>
  <path id="finaxo._copy" data-name="finaxo. copy" class="cls-1" d="M472.352,97.448a9.894,9.894,0,0,0,7.24-2.846,9.689,9.689,0,0,0,2.887-7.2,9.587,9.587,0,0,0-2.842-7.2,10.945,10.945,0,0,0-14.525,0,9.506,9.506,0,0,0-2.887,7.2,9.611,9.611,0,0,0,2.931,7.2,9.934,9.934,0,0,0,7.2,2.846h0Z" transform="translate(-0.125 -0.094)"/>
  <path id="finaxo." class="cls-2" d="M182.574,49.163a6.758,6.758,0,0,1,1.466-4.713,5.319,5.319,0,0,1,4.131-1.6,10.1,10.1,0,0,1,5.064,1.423l4.175-11.916a14.822,14.822,0,0,0-4.975-1.867,30.8,30.8,0,0,0-6.219-.623q-9.506,0-14.791,5.157T166.14,48.985V50.23h-7.018V62.857h7.018V96.647h16.878V62.857h11.016V50.23h-11.46V49.163Zm24.783,47.485h16.879v-48.2H207.357v48.2Zm8.44-53.531a10.568,10.568,0,0,0,7.462-2.623,8.627,8.627,0,0,0,2.843-6.625,7.9,7.9,0,0,0-2.843-6.269,11.046,11.046,0,0,0-7.462-2.445,10.678,10.678,0,0,0-7.462,2.579,8.631,8.631,0,0,0,0,12.8,10.671,10.671,0,0,0,7.462,2.579h0Zm50.724,4.535a22.865,22.865,0,0,0-8.528,1.556,19.126,19.126,0,0,0-6.752,4.491V48.451H235.162v48.2h16.879V73.35q0-5.69,2.62-8.537a9.028,9.028,0,0,1,6.974-2.846q7.907,0,7.906,9.87V96.647H286.42V69.081q0-10.758-5.463-16.095t-14.436-5.335h0Zm50.992,0a46.2,46.2,0,0,0-11.5,1.467,31.479,31.479,0,0,0-9.728,4.135l5.685,11.471a18.726,18.726,0,0,1,6.041-3.068,23.429,23.429,0,0,1,7.018-1.111q9.773,0,10.216,7.647h-9.594q-10.926,0-16.168,3.779A12.341,12.341,0,0,0,294.238,82.6a14.024,14.024,0,0,0,2.087,7.6,14.348,14.348,0,0,0,6.174,5.291,22.239,22.239,0,0,0,9.684,1.956q10.571,0,14.213-7.025v6.225H342.12V69.882q0-11.292-6.307-16.762t-18.3-5.469h0Zm-0.622,39.126a7.262,7.262,0,0,1-4.62-1.334,4.3,4.3,0,0,1-1.687-3.557q0-4.889,7.373-4.891h7.284v4.179a7.919,7.919,0,0,1-3.2,4.179,9.338,9.338,0,0,1-5.152,1.423h0Zm85.726,9.87-18.389-24.72L402,48.451H384.139l-8.884,12.182-8.528-12.182H347.716l17.767,24.1-18.3,24.1h18.3l9.239-12.627,8.617,12.627h19.278Zm27.894,0.8a30.22,30.22,0,0,0,14.036-3.2,23.839,23.839,0,0,0,9.683-8.892A24.3,24.3,0,0,0,457.7,72.46a24.07,24.07,0,0,0-3.465-12.849,23.645,23.645,0,0,0-9.683-8.8,32.685,32.685,0,0,0-28.028,0,24.327,24.327,0,0,0,.045,43.439,30.015,30.015,0,0,0,13.947,3.2h0Zm0-13.427a9.488,9.488,0,0,1-7.285-3.068q-2.844-3.068-2.842-8.492,0-5.335,2.842-8.359a10.287,10.287,0,0,1,14.569,0q2.842,3.024,2.843,8.359,0,5.425-2.843,8.492a9.489,9.489,0,0,1-7.284,3.068h0Z" transform="translate(-0.125 -0.094)"/>
  <path class="cls-2" d="M67.7,0.389a62.359,62.359,0,0,1,16.6,4.3,0.531,0.531,0,0,1,.505.532,66.976,66.976,0,0,0-10.217,1.6c-10.6,2.742-19.03,8.809-26.057,16.986a92.972,92.972,0,0,0-14.856,24.85A2.137,2.137,0,0,1,31.3,50.215c-4.141-.084-8.289.06-12.427-0.079-1.539-.052-2.051.489-2.375,1.874-0.734,3.138-1.574,6.254-2.492,9.343-0.378,1.27-.058,1.508,1.175,1.491,4.558-.062,9.117-0.025,13.792-0.025l-10.981,41a36.137,36.137,0,0,1-5.848-6.6A60.489,60.489,0,0,1,.187,57.636C1.375,30.931,21.325,7.258,47.355,1.564A64.981,64.981,0,0,1,58.023.1" transform="translate(-0.125 -0.094)"/>
  <path class="cls-1" d="M121.866,65.791c-0.978,2.265-.9,4.739-1.37,7.1-4.765,24.18-25.021,43.731-49.376,47.632a62.1,62.1,0,0,1-12.887.7,3.243,3.243,0,0,0-2.682,1.049c-5.66,5.613-11.37,11.176-17.073,16.747a3.5,3.5,0,0,1-1.523,1.173c1.819-6.786,3.614-13.473,5.405-20.162,4.919-18.368,9.874-36.727,14.7-55.12,0.517-1.971,1.323-2.428,3.243-2.421,19.775,0.074,39.551.044,59.327,0.048a3.337,3.337,0,0,1,2.237.375v2.879ZM90.948,49.9c-9.344,0-18.687-.035-28.03.034-1.591.012-1.7-.375-1.286-1.8,2.217-7.644,5.031-15,10.247-21.158,5.955-7.026,13.469-11.04,22.835-10.913,6.569,0.089,11.436,3.5,15.21,8.59a60.659,60.659,0,0,1,10.565,23.558c0.359,1.653-.207,1.71-1.509,1.7C109.636,49.885,100.292,49.9,90.948,49.9Z" transform="translate(-0.125 -0.094)"/>
</svg>
