<?xml version="1.0" standalone="no"?>
<!DOCTYPE svg PUBLIC "-//W3C//DTD SVG 20010904//EN"
 "http://www.w3.org/TR/2001/REC-SVG-20010904/DTD/svg10.dtd">
<svg version="1.0" xmlns="http://www.w3.org/2000/svg"
 width="800.000000pt" height="800.000000pt" viewBox="0 0 800.000000 800.000000"
 preserveAspectRatio="xMidYMid meet">
<metadata>
Created by potrace 1.14, written by Peter Selinger 2001-2017
</metadata>
<g transform="translate(0.000000,800.000000) scale(0.100000,-0.100000)"
fill="#000000" stroke="none">
<path d="M0 4000 l0 -4000 4000 0 4000 0 0 4000 0 4000 -4000 0 -4000 0 0
-4000z m4650 2565 c246 -34 462 -96 632 -181 49 -25 94 -42 100 -38 6 4 8 3 5
-3 -4 -6 10 -22 31 -35 57 -38 123 -109 143 -153 34 -74 20 -191 -39 -327 -99
-228 -221 -381 -322 -403 -20 -4 -47 2 -87 18 -32 14 -89 38 -128 54 -156 66
-338 101 -565 110 -239 9 -437 -21 -554 -85 -123 -67 -214 -209 -223 -350 -7
-98 12 -167 68 -252 46 -69 182 -185 206 -176 8 3 11 2 8 -4 -14 -22 241 -153
511 -260 351 -141 608 -263 752 -360 115 -77 265 -225 354 -351 74 -104 156
-259 189 -359 136 -414 85 -1015 -118 -1403 -211 -401 -635 -666 -1208 -753
-146 -23 -586 -26 -760 -6 -447 52 -798 164 -1065 343 -141 94 -220 200 -220
294 0 137 123 382 274 543 114 121 160 138 267 93 40 -17 77 -28 82 -24 6 3 7
1 3 -5 -8 -14 50 -46 66 -36 6 4 8 3 5 -3 -8 -13 229 -127 249 -119 8 3 13 2
9 -3 -7 -12 121 -55 136 -45 7 4 9 3 5 -4 -6 -10 95 -37 226 -61 100 -18 279
-24 380 -12 125 14 200 30 193 42 -4 5 0 6 8 3 19 -7 109 30 161 65 98 68 175
185 196 300 35 188 -8 345 -130 470 -112 116 -351 253 -655 375 -302 122 -628
277 -735 349 -195 131 -381 345 -485 556 -86 173 -132 363 -143 580 -25 482
91 822 384 1130 275 290 646 454 1125 501 134 13 532 4 669 -15z m945 -394 c3
-5 2 -12 -3 -15 -5 -3 -9 1 -9 9 0 17 3 19 12 6z m-2820 -129 c-3 -3 -11 0
-18 7 -9 10 -8 11 6 5 10 -3 15 -9 12 -12z m-20 -11 c3 -5 2 -12 -3 -15 -5 -3
-9 1 -9 9 0 17 3 19 12 6z m2678 -2076 c-3 -9 -8 -14 -10 -11 -3 3 -2 9 2 15
9 16 15 13 8 -4z m-2393 -1461 c0 -8 -19 -13 -24 -6 -3 5 1 9 9 9 8 0 15 -2
15 -3z m145 -84 c3 -6 -1 -7 -9 -4 -18 7 -21 14 -7 14 6 0 13 -4 16 -10z m782
-196 c-3 -3 -12 -4 -19 -1 -8 3 -5 6 6 6 11 1 17 -2 13 -5z"/>
</g>
</svg>
